<svg width="32" height="32" viewBox="0 0 32 32" fill="none" xmlns="http://www.w3.org/2000/svg">
<path d="M26 13.05V10.5C26 7.467 23.532 5 20.5 5H11.5C8.468 5 6 7.467 6 10.5V13.05C4.86 13.282 4 14.292 4 15.5V20.5C4 22.057 4.795 23.432 6 24.24V26.5C6 26.776 6.224 27 6.5 27C6.776 27 7 26.776 7 26.5V24.743C7.469 24.909 7.974 25 8.5 25H23.5C24.026 25 24.531 24.909 25 24.743V26.5C25 26.776 25.224 27 25.5 27C25.776 27 26 26.776 26 26.5V24.24C27.205 23.432 28 22.057 28 20.5V15.5C28 14.293 27.14 13.283 26 13.05ZM15.5 24H8.5C6.57 24 5 22.43 5 20.5V15.5C5 14.673 5.673 14 6.5 14C7.327 14 8 14.673 8 15.5V19.5C8 19.776 8.224 20 8.5 20H12C13.93 20 15.5 21.57 15.5 23.5V24ZM12 19H9V15.5C9 14.293 8.14 13.283 7 13.05V10.5C7 8.019 9.019 6 11.5 6H20.5C22.981 6 25 8.019 25 10.5V13.05C23.86 13.282 23 14.292 23 15.5V19H20C18.261 19 16.749 19.992 16 21.439C15.251 19.991 13.739 19 12 19ZM27 20.5C27 22.43 25.43 24 23.5 24H16.5V23.5C16.5 21.57 18.07 20 20 20H23.5C23.776 20 24 19.776 24 19.5V15.5C24 14.673 24.673 14 25.5 14C26.327 14 27 14.673 27 15.5V20.5Z" fill="black"/>
</svg>
