<svg width="32" height="32" viewBox="0 0 32 32" fill="none" xmlns="http://www.w3.org/2000/svg">
    <path  id="light-ceiling" d="M16.5 10.525V4H15.5V10.525C9.116 10.789 4 16.019 4 22.43V24H12C12 26.206 13.794 28 16 28C18.206 28 20 26.206 20 24H28V22.43C28 16.02 22.884 10.788 16.5 10.525ZM16 27C14.346 27 13 25.654 13 24H19C19 25.654 17.654 27 16 27ZM27 23H5V22.43C5 16.403 9.935 11.5 16 11.5C22.065 11.5 27 16.403 27 22.43V23Z" />

    <path id="loveseat" d="M26 13.05V10.5C26 7.467 23.532 5 20.5 5H11.5C8.468 5 6 7.467 6 10.5V13.05C4.86 13.282 4 14.292 4 15.5V20.5C4 22.057 4.795 23.432 6 24.24V26.5C6 26.776 6.224 27 6.5 27C6.776 27 7 26.776 7 26.5V24.743C7.469 24.909 7.974 25 8.5 25H23.5C24.026 25 24.531 24.909 25 24.743V26.5C25 26.776 25.224 27 25.5 27C25.776 27 26 26.776 26 26.5V24.24C27.205 23.432 28 22.057 28 20.5V15.5C28 14.293 27.14 13.283 26 13.05ZM15.5 24H8.5C6.57 24 5 22.43 5 20.5V15.5C5 14.673 5.673 14 6.5 14C7.327 14 8 14.673 8 15.5V19.5C8 19.776 8.224 20 8.5 20H12C13.93 20 15.5 21.57 15.5 23.5V24ZM12 19H9V15.5C9 14.293 8.14 13.283 7 13.05V10.5C7 8.019 9.019 6 11.5 6H20.5C22.981 6 25 8.019 25 10.5V13.05C23.86 13.282 23 14.292 23 15.5V19H20C18.261 19 16.749 19.992 16 21.439C15.251 19.991 13.739 19 12 19ZM27 20.5C27 22.43 25.43 24 23.5 24H16.5V23.5C16.5 21.57 18.07 20 20 20H23.5C23.776 20 24 19.776 24 19.5V15.5C24 14.673 24.673 14 25.5 14C26.327 14 27 14.673 27 15.5V20.5Z" />

    <path id="tv-retro" d="M23.5 10.0002H17.137L21.869 4.83822C22.056 4.63422 22.042 4.31822 21.838 4.13122C21.634 3.94522 21.318 3.95822 21.131 4.16222L16 9.76022L10.869 4.16222C10.683 3.95822 10.366 3.94522 10.162 4.13122C9.958 4.31822 9.945 4.63422 10.131 4.83822L14.863 10.0002H8.5C6.019 10.0002 4 12.0192 4 14.5002V23.5002C4 25.9812 6.019 28.0002 8.5 28.0002H23.5C25.981 28.0002 28 25.9812 28 23.5002V14.5002C28 12.0192 25.981 10.0002 23.5 10.0002ZM27 23.5002C27 25.4302 25.43 27.0002 23.5 27.0002H8.5C6.57 27.0002 5 25.4302 5 23.5002V14.5002C5 12.5702 6.57 11.0002 8.5 11.0002H23.5C25.43 11.0002 27 12.5702 27 14.5002V23.5002ZM19.5 14.0002H9.5C8.673 14.0002 8 14.6732 8 15.5002V22.5002C8 23.3272 8.673 24.0002 9.5 24.0002H19.5C20.327 24.0002 21 23.3272 21 22.5002V15.5002C21 14.6732 20.327 14.0002 19.5 14.0002ZM20 22.5002C20 22.7762 19.776 23.0002 19.5 23.0002H9.5C9.224 23.0002 9 22.7762 9 22.5002V15.5002C9 15.2242 9.224 15.0002 9.5 15.0002H19.5C19.776 15.0002 20 15.2242 20 15.5002V22.5002ZM25 15.0002C25 15.5522 24.552 16.0002 24 16.0002C23.448 16.0002 23 15.5522 23 15.0002C23 14.4482 23.448 14.0002 24 14.0002C24.552 14.0002 25 14.4482 25 15.0002ZM25 19.0002C25 19.5522 24.552 20.0002 24 20.0002C23.448 20.0002 23 19.5522 23 19.0002C23 18.4482 23.448 18.0002 24 18.0002C24.552 18.0002 25 18.4482 25 19.0002ZM25 23.0002C25 23.5522 24.552 24.0002 24 24.0002C23.448 24.0002 23 23.5522 23 23.0002C23 22.4482 23.448 22.0002 24 22.0002C24.552 22.0002 25 22.4482 25 23.0002Z" />
</svg>