<svg width="32" height="32" viewBox="0 0 32 32" fill="none" xmlns="http://www.w3.org/2000/svg">
<path d="M23.5 10.0002H17.137L21.869 4.83822C22.056 4.63422 22.042 4.31822 21.838 4.13122C21.634 3.94522 21.318 3.95822 21.131 4.16222L16 9.76022L10.869 4.16222C10.683 3.95822 10.366 3.94522 10.162 4.13122C9.958 4.31822 9.945 4.63422 10.131 4.83822L14.863 10.0002H8.5C6.019 10.0002 4 12.0192 4 14.5002V23.5002C4 25.9812 6.019 28.0002 8.5 28.0002H23.5C25.981 28.0002 28 25.9812 28 23.5002V14.5002C28 12.0192 25.981 10.0002 23.5 10.0002ZM27 23.5002C27 25.4302 25.43 27.0002 23.5 27.0002H8.5C6.57 27.0002 5 25.4302 5 23.5002V14.5002C5 12.5702 6.57 11.0002 8.5 11.0002H23.5C25.43 11.0002 27 12.5702 27 14.5002V23.5002ZM19.5 14.0002H9.5C8.673 14.0002 8 14.6732 8 15.5002V22.5002C8 23.3272 8.673 24.0002 9.5 24.0002H19.5C20.327 24.0002 21 23.3272 21 22.5002V15.5002C21 14.6732 20.327 14.0002 19.5 14.0002ZM20 22.5002C20 22.7762 19.776 23.0002 19.5 23.0002H9.5C9.224 23.0002 9 22.7762 9 22.5002V15.5002C9 15.2242 9.224 15.0002 9.5 15.0002H19.5C19.776 15.0002 20 15.2242 20 15.5002V22.5002ZM25 15.0002C25 15.5522 24.552 16.0002 24 16.0002C23.448 16.0002 23 15.5522 23 15.0002C23 14.4482 23.448 14.0002 24 14.0002C24.552 14.0002 25 14.4482 25 15.0002ZM25 19.0002C25 19.5522 24.552 20.0002 24 20.0002C23.448 20.0002 23 19.5522 23 19.0002C23 18.4482 23.448 18.0002 24 18.0002C24.552 18.0002 25 18.4482 25 19.0002ZM25 23.0002C25 23.5522 24.552 24.0002 24 24.0002C23.448 24.0002 23 23.5522 23 23.0002C23 22.4482 23.448 22.0002 24 22.0002C24.552 22.0002 25 22.4482 25 23.0002Z" fill="black"/>
</svg>
